<svg width="24" height="24" viewBox="0 0 24 24" fill="none" xmlns="http://www.w3.org/2000/svg">
<path fill-rule="evenodd" clip-rule="evenodd" d="M8.92138 7.293C9.10889 7.22672 9.31504 7.23764 9.49451 7.32334C9.67397 7.40904 9.81205 7.56251 9.87838 7.75C10.0334 8.18904 10.3208 8.56918 10.701 8.83807C11.0811 9.10695 11.5353 9.25134 12.0009 9.25134C12.4665 9.25134 12.9207 9.10695 13.3008 8.83807C13.6809 8.56918 13.9683 8.18904 14.1234 7.75C14.155 7.65564 14.2051 7.56851 14.2708 7.49371C14.3364 7.41891 14.4163 7.35792 14.5058 7.31429C14.5952 7.27067 14.6925 7.24529 14.7918 7.23963C14.8912 7.23397 14.9907 7.24814 15.0845 7.28132C15.1783 7.3145 15.2646 7.36602 15.3383 7.43289C15.4121 7.49975 15.4717 7.58062 15.5139 7.67078C15.556 7.76094 15.5798 7.85859 15.5839 7.95803C15.5879 8.05747 15.5721 8.15672 15.5374 8.25C15.2788 8.98134 14.7999 9.61454 14.1665 10.0624C13.5332 10.5102 12.7766 10.7507 12.0009 10.7507C11.2252 10.7507 10.4686 10.5102 9.83521 10.0624C9.20186 9.61454 8.72293 8.98134 8.46438 8.25C8.3981 8.06249 8.40901 7.85634 8.49472 7.67687C8.58042 7.49741 8.73389 7.35933 8.92138 7.293ZM12.3614 5.5H11.6394C10.0144 5.5 8.93238 5.503 8.11238 5.604C7.33438 5.7 6.97538 5.867 6.72338 6.076C6.47138 6.286 6.24138 6.607 6.00338 7.354C5.75338 8.141 5.55138 9.204 5.25138 10.802C4.83138 13.042 4.54938 14.563 4.49938 15.709C4.45138 16.814 4.63638 17.284 4.89638 17.597C5.15638 17.91 5.58338 18.178 6.67838 18.334C7.81338 18.496 9.36138 18.5 11.6404 18.5H12.3604C14.6404 18.5 16.1874 18.496 17.3224 18.334C18.4174 18.178 18.8444 17.91 19.1044 17.597C19.3644 17.283 19.5494 16.814 19.5014 15.709C19.4514 14.563 19.1694 13.042 18.7494 10.802C18.4494 9.204 18.2484 8.142 17.9974 7.354C17.7594 6.607 17.5294 6.285 17.2774 6.076C17.0254 5.867 16.6674 5.7 15.8884 5.604C15.0684 5.503 13.9864 5.5 12.3614 5.5ZM5.76538 4.922C4.65538 5.844 4.36238 7.405 3.77738 10.526C2.95438 14.915 2.54238 17.109 3.74238 18.555C4.94238 20.001 7.17438 20 11.6404 20H12.3604C16.8264 20 19.0594 20 20.2594 18.555C21.4594 17.11 21.0474 14.915 20.2244 10.525C19.6394 7.405 19.3464 5.844 18.2354 4.922C17.1254 4 15.5364 4 12.3614 4H11.6394C8.46438 4 6.87638 4 5.76538 4.922Z" fill="black"/>
</svg>
