<svg width="24" height="24" viewBox="0 0 24 24" fill="none" xmlns="http://www.w3.org/2000/svg">
<path d="M3 13.1118C3 20.2228 8.289 22.0008 10.933 22.0008C12.287 22.0008 14.248 21.6438 16 20.6108M18.72 18.0008C19.502 16.7548 20 15.1528 20 13.1118C20 8.58478 17.165 5.35178 14.602 3.49878C13.444 2.66078 12 3.58078 12 5.01078V5.33378C12 6.77578 11.394 9.40778 9.71 10.5028C8.85 11.0618 7.92 10.2248 7.816 9.20478L7.73 8.36678C7.63 7.39278 6.638 6.80178 5.86 7.39578C5.10217 7.9712 4.46076 8.68557 3.97 9.50078" stroke="black" stroke-width="1.5" stroke-linecap="round"/>
<path d="M8 18.4438C8 21.2878 10.489 21.9988 11.733 21.9988C12.823 21.9988 15 21.2878 15 18.4438C15 17.3418 14.41 16.5988 13.84 16.1698C13.442 15.8708 12.883 16.1398 12.746 16.6188C12.568 17.2428 11.923 17.6348 11.594 17.0748C11.294 16.5628 11.294 15.7948 11.294 15.3318C11.294 14.6958 10.654 14.2838 10.139 14.6578C9.106 15.4078 8 16.6788 8 18.4438Z" stroke="black" stroke-width="1.5"/>
</svg>
