<svg width="24" height="24" viewBox="0 0 24 24" fill="none" xmlns="http://www.w3.org/2000/svg">
<path fill-rule="evenodd" clip-rule="evenodd" d="M16.6212 15.1726L20.8652 19.4166L19.4512 20.8316L15.2112 16.5916C13.7976 17.6562 12.0332 18.1459 10.273 17.9622C8.51293 17.7784 6.88774 16.9347 5.72454 15.601C4.56134 14.2673 3.94647 12.5425 4.00366 10.7738C4.06085 9.00501 4.78587 7.32355 6.0328 6.06778C7.27973 4.812 8.95602 4.07513 10.7243 4.00543C12.4927 3.93574 14.2217 4.53841 15.5636 5.69216C16.9055 6.8459 17.7606 8.46509 17.9568 10.2239C18.1531 11.9826 17.6758 13.7505 16.6212 15.1716V15.1726ZM15.9992 11.0006C15.9992 9.6745 15.4724 8.40273 14.5347 7.46505C13.5971 6.52737 12.3253 6.00059 10.9992 6.00059C9.67312 6.00059 8.40135 6.52737 7.46367 7.46505C6.52599 8.40273 5.99921 9.6745 5.99921 11.0006C5.99921 12.3267 6.52599 13.5984 7.46367 14.5361C8.40135 15.4738 9.67312 16.0006 10.9992 16.0006C12.3253 16.0006 13.5971 15.4738 14.5347 14.5361C15.4724 13.5984 15.9992 12.3267 15.9992 11.0006Z" fill="black"/>
</svg>
